HIERARCHY
ROOT joint_Root
{
	OFFSET 0.0 0.0 0.0
	CHANNELS 6 Xposition Yposition Zposition Zrotation Xrotation Yrotation 
	JOINT Hips
	{
		OFFSET -17.1583 93.1646 452.98
		CHANNELS 6 Xposition Yposition Zposition Zrotation Xrotation Yrotation 
		JOINT Spine
		{
			OFFSET 15.7357 0.0 0.0
			CHANNELS 6 Xposition Yposition Zposition Zrotation Xrotation Yrotation 
			JOINT Chest
			{
				OFFSET 8.98455 -0.406207 0.0
				CHANNELS 6 Xposition Yposition Zposition Zrotation Xrotation Yrotation 
				JOINT Neck
				{
					OFFSET 16.3773 0.0 0.0
					CHANNELS 6 Xposition Yposition Zposition Zrotation Xrotation Yrotation 
					JOINT Head
					{
						OFFSET 6.45672 0.0 0.0
						CHANNELS 6 Xposition Yposition Zposition Zrotation Xrotation Yrotation 
						End Site
						{
							OFFSET 0.0 0.0 0.0
						}
					}
				}
				JOINT Shoulder_L
				{
					OFFSET 12.9942 -0.242716 4.98039
					CHANNELS 6 Xposition Yposition Zposition Zrotation Xrotation Yrotation 
					JOINT UpperArm_L
					{
						OFFSET 5.34809 0.0 0.0
						CHANNELS 6 Xposition Yposition Zposition Zrotation Xrotation Yrotation 
						JOINT LowerArm_L
						{
							OFFSET 24.3286 1.87007e-05 0.0
							CHANNELS 6 Xposition Yposition Zposition Zrotation Xrotation Yrotation 
							JOINT Hand_L
							{
								OFFSET 22.2916 0.0 0.0
								CHANNELS 6 Xposition Yposition Zposition Zrotation Xrotation Yrotation 
								End Site
								{
									OFFSET 0.0 0.0 0.0
								}
							}
						}
					}
				}
				JOINT Shoulder_R
				{
					OFFSET 12.9945 -0.242716 -4.98039
					CHANNELS 6 Xposition Yposition Zposition Zrotation Xrotation Yrotation 
					JOINT UpperArm_R
					{
						OFFSET -5.34813 0.0 0.0
						CHANNELS 6 Xposition Yposition Zposition Zrotation Xrotation Yrotation 
						JOINT LowerArm_R
						{
							OFFSET -24.3289 0.000322201 0.0
							CHANNELS 6 Xposition Yposition Zposition Zrotation Xrotation Yrotation 
							JOINT Hand_R
							{
								OFFSET -22.2915 -0.000108084 0.0
								CHANNELS 6 Xposition Yposition Zposition Zrotation Xrotation Yrotation 
								End Site
								{
									OFFSET 0.0 0.0 0.0
								}
							}
						}
					}
				}
			}
		}
		JOINT UpperLeg_L
		{
			OFFSET -2.19248 -6.46944 0.0
			CHANNELS 6 Xposition Yposition Zposition Zrotation Xrotation Yrotation 
			JOINT LowerLeg_L
			{
				OFFSET 39.0811 0.0 -1.23785e-05
				CHANNELS 6 Xposition Yposition Zposition Zrotation Xrotation Yrotation 
				JOINT Foot_L
				{
					OFFSET 40.9854 0.0 -1.26872e-05
					CHANNELS 6 Xposition Yposition Zposition Zrotation Xrotation Yrotation 
					JOINT Toes_L
					{
						OFFSET 11.7543 0.0 0.0
						CHANNELS 6 Xposition Yposition Zposition Zrotation Xrotation Yrotation 
						End Site
						{
							OFFSET 0.0 0.0 0.0
						}
					}
				}
			}
		}
		JOINT UpperLeg_R
		{
			OFFSET -2.19251 6.46944 0.0
			CHANNELS 6 Xposition Yposition Zposition Zrotation Xrotation Yrotation 
			JOINT LowerLeg_R
			{
				OFFSET -39.0811 -0.00228153 -0.0401928
				CHANNELS 6 Xposition Yposition Zposition Zrotation Xrotation Yrotation 
				JOINT Foot_R
				{
					OFFSET -40.9854 0.0 0.0
					CHANNELS 6 Xposition Yposition Zposition Zrotation Xrotation Yrotation 
					JOINT Toes_R
					{
						OFFSET -11.7543 0.0 0.0
						CHANNELS 6 Xposition Yposition Zposition Zrotation Xrotation Yrotation 
						End Site
						{
							OFFSET 0.0 0.0 0.0
						}
					}
				}
			}
		}
	}
}
MOTION
Frames:	4
Frame Time:	0.0333333
0.000000 0.000000 0.000000 0.000000 0.000000 -0.000000 -0.024275 88.663700 13.943000 -84.307700 -3.766210 177.715000 15.735700 0.000005 -0.000001 24.009200 86.846900 -20.383600 8.984550 -0.406207 -0.000000 -5.009890 -6.158270 6.993450 16.377300 -0.000001 -0.000001 2.776320 3.944310 -2.019640 6.456720 -0.000001 -0.000000 5.480300 7.608610 -8.076470 12.994200 -0.242716 4.980390 -92.802400 9.125290 -72.847400 5.348090 -0.000007 -0.000001 -74.201100 -9.056640 2.173870 24.328600 0.000019 0.000005 24.725700 27.961800 -44.482500 22.291600 -0.000001 0.000005 50.348500 4.391300 18.361700 12.994500 -0.242716 -4.980390 88.936000 2.824570 -69.348400 -5.348130 -0.000001 -0.000004 -65.233000 -0.948984 5.622960 -24.328900 0.000322 -0.000009 0.185768 1.485250 -7.169990 -22.291500 -0.000108 -0.000004 49.007200 5.404100 -3.071360 -2.192480 -6.469440 -0.000000 -169.054000 -6.087430 1.554390 39.081100 -0.000007 -0.000012 0.178170 -0.180296 44.659900 40.985400 -0.000006 -0.000013 -11.328000 23.094200 -32.501200 11.754300 -0.000000 0.000003 -0.042891 -0.271448 -27.736100 -2.192510 6.469440 -0.000001 -169.824000 -2.426560 149.036000 -39.081100 -0.002282 -0.040193 0.088113 -0.128642 33.398600 -40.985400 0.000008 0.000006 1.298940 -10.513200 -62.918800 -11.754300 -0.000006 -0.000006 -0.010456 0.274682 -5.412860
0.000000 0.000000 0.000000 0.000000 0.000000 -0.000000 0.195794 88.471500 9.100270 -83.337400 -4.233290 179.849000 15.735700 0.000005 -0.000001 36.286100 86.669800 -32.310600 8.984550 -0.406207 -0.000000 -3.620640 -5.760140 7.777000 16.377300 -0.000001 -0.000001 2.675760 3.583790 -1.576720 6.456720 -0.000001 -0.000000 5.274550 7.077610 -8.334810 12.994200 -0.242716 4.980390 -92.917800 9.396560 -72.662300 5.348090 -0.000007 -0.000001 -73.610000 -8.840630 4.110720 24.328600 0.000019 0.000005 22.223400 29.456200 -39.721000 22.291600 -0.000001 0.000005 50.302900 4.414740 17.987600 12.994500 -0.242716 -4.980390 88.813100 3.141640 -69.291400 -5.348130 -0.000001 -0.000004 -66.806500 0.786284 1.713860 -24.328900 0.000322 -0.000009 0.061282 0.400402 -8.851320 -22.291500 -0.000108 -0.000004 48.690700 5.410240 -3.273660 -2.192480 -6.469440 -0.000000 -167.887000 -3.497280 -4.673440 39.081100 -0.000007 -0.000012 0.367597 -0.256040 55.141800 40.985400 -0.000006 -0.000013 -18.425000 13.877200 -18.282400 11.754300 -0.000000 0.000003 0.002405 0.068593 -13.794800 -2.192510 6.469440 -0.000001 -167.929000 0.288704 152.643000 -39.081100 -0.002282 -0.040193 0.159905 -0.206636 37.160400 -40.985400 0.000008 0.000006 1.842510 -8.946030 -68.019300 -11.754300 -0.000006 -0.000006 -0.011385 0.281381 -5.138670
0.000000 0.000000 0.000000 0.000000 0.000000 -0.000000 0.291763 88.931600 4.564800 -82.822800 -4.975050 -178.750000 15.735700 0.000005 -0.000001 45.005800 86.712700 -40.938700 8.984550 -0.406207 -0.000000 -2.930120 -5.025670 8.010710 16.377300 -0.000001 -0.000001 2.900590 2.874100 -0.879085 6.456720 -0.000001 -0.000000 5.562820 6.012840 -7.942970 12.994200 -0.242716 4.980390 -92.835900 9.094270 -72.598700 5.348090 -0.000007 -0.000001 -72.702800 -9.097040 5.770010 24.328600 0.000019 0.000005 20.496800 30.954700 -36.008400 22.291600 -0.000001 0.000005 49.521100 4.435590 17.652100 12.994500 -0.242716 -4.980390 88.776300 3.234500 -69.264300 -5.348130 -0.000001 -0.000004 -68.170300 2.889420 -0.874216 -24.328900 0.000322 -0.000009 -0.037452 -0.157616 -13.008300 -22.291500 -0.000108 -0.000004 48.374600 5.416550 -3.483280 -2.192480 -6.469440 -0.000000 -167.539000 -1.369660 -10.889100 39.081100 -0.000007 -0.000012 0.397834 -0.191690 64.273400 40.985400 -0.000006 -0.000013 -17.453300 13.183400 -25.310900 11.754300 -0.000000 0.000003 0.002320 0.062059 -14.059700 -2.192510 6.469440 -0.000001 -167.084000 4.152260 157.423000 -39.081100 -0.002282 -0.040193 0.148571 -0.193631 36.881600 -40.985400 0.000008 0.000006 1.714930 -6.340180 -71.143700 -11.754300 -0.000006 -0.000006 -0.011333 0.281012 -5.153760
0.000000 0.000000 0.000000 0.000000 0.000000 -0.000000 0.099306 89.677000 0.237810 -83.795900 -4.850420 -177.562000 15.735700 0.000005 -0.000001 56.379300 86.852800 -52.867100 8.984550 -0.406207 -0.000000 -2.400590 -3.795370 6.946700 16.377300 -0.000001 -0.000001 3.277020 2.364480 -0.002501 6.456720 -0.000001 -0.000000 6.041260 4.883020 -7.081590 12.994200 -0.242716 4.980390 -92.624200 8.321470 -72.427600 5.348090 -0.000007 -0.000001 -70.985400 -10.926300 7.655180 24.328600 0.000019 0.000005 18.885300 30.859500 -33.700200 22.291600 -0.000001 0.000005 49.215600 4.429990 17.742400 12.994500 -0.242716 -4.980390 88.829500 3.117080 -69.406000 -5.348130 -0.000001 -0.000004 -69.430000 5.656670 -2.969860 -24.328900 0.000322 -0.000009 0.130147 0.404512 -17.959700 -22.291500 -0.000108 -0.000004 48.676100 5.436870 -4.176750 -2.192480 -6.469440 -0.000000 -169.418000 -0.549854 -16.093400 39.081100 -0.000007 -0.000012 0.266606 -0.102346 68.997900 40.985400 -0.000006 -0.000013 -12.115000 13.703400 -33.058900 11.754300 -0.000000 0.000003 0.002289 0.060111 -14.138600 -2.192510 6.469440 -0.000001 -168.508000 5.143000 162.930000 -39.081100 -0.002282 -0.040193 0.066015 -0.089423 35.047000 -40.985400 0.000008 0.000006 0.150478 -5.087910 -73.209400 -11.754300 -0.000006 -0.000006 -0.011153 0.279727 -5.206390
